<svg xmlns="http://www.w3.org/2000/svg" xmlns:xlink="http://www.w3.org/1999/xlink" width="32px" height="32px" viewBox="0 0 32 32" version="1.1">
<g id="surface1">
<path style=" stroke:none;fill-rule:nonzero;fill:rgb(0%,0%,0%);fill-opacity:1;" d="M 0.210938 9.601562 C 0.0234375 9.8125 0 10.386719 0 15.324219 C 0 19.539062 0.0390625 20.875 0.164062 21.039062 C 0.300781 21.226562 0.761719 21.25 4.8125 21.273438 L 9.3125 21.3125 L 9.386719 21.851562 C 9.425781 22.148438 9.539062 22.449219 9.636719 22.511719 C 9.738281 22.574219 11.113281 22.625 12.699219 22.625 C 15.949219 22.625 16 22.613281 16 21.710938 L 16 21.25 L 23.875 21.25 C 31.523438 21.25 31.75 21.238281 31.875 21.011719 C 31.949219 20.851562 32 18.824219 32 15.273438 C 32 10.125 31.988281 9.773438 31.773438 9.585938 C 31.5625 9.386719 30.289062 9.375 15.976562 9.375 C 1.0625 9.375 0.398438 9.386719 0.210938 9.601562 Z M 9.375 15.3125 L 9.375 20 L 6.625 20 L 6.625 16.886719 C 6.625 14.210938 6.601562 13.738281 6.425781 13.574219 C 6.175781 13.324219 5.824219 13.324219 5.574219 13.574219 C 5.398438 13.738281 5.375 14.210938 5.375 16.886719 L 5.375 20 L 1.25 20 L 1.25 15.398438 C 1.25 12.863281 1.289062 10.75 1.335938 10.710938 C 1.375 10.664062 3.210938 10.625 5.398438 10.625 L 9.375 10.625 Z M 18.726562 15.335938 L 18.75 20 L 16.960938 20 C 14.925781 20 14.789062 20.050781 14.726562 20.8125 L 14.6875 21.3125 L 12.664062 21.351562 L 10.625 21.375 L 10.625 10.625 L 14.664062 10.648438 L 18.6875 10.6875 Z M 30.726562 15.335938 L 30.75 20 L 28 20 L 28 16.914062 C 28 14.226562 27.976562 13.800781 27.789062 13.601562 C 27.5625 13.335938 27.125 13.300781 26.898438 13.523438 C 26.789062 13.636719 26.75 14.550781 26.75 16.835938 L 26.75 20 L 24 20 L 24 16.914062 C 24 14.226562 23.976562 13.800781 23.789062 13.601562 C 23.5625 13.335938 23.125 13.300781 22.898438 13.523438 C 22.789062 13.636719 22.75 14.550781 22.75 16.835938 L 22.75 20 L 20 20 L 20 10.625 L 25.351562 10.648438 L 30.6875 10.6875 Z M 30.726562 15.335938 "/>
<path style=" stroke:none;fill-rule:nonzero;fill:rgb(0%,0%,0%);fill-opacity:1;" d="M 14.898438 13.523438 C 14.6875 13.738281 14.6875 16.886719 14.898438 17.101562 C 15.136719 17.335938 15.726562 17.289062 15.875 17.011719 C 15.9375 16.875 16 16.101562 16 15.273438 C 16 14 15.960938 13.761719 15.773438 13.585938 C 15.5 13.335938 15.113281 13.3125 14.898438 13.523438 Z M 14.898438 13.523438 "/>
</g>
</svg>